<?xml version="1.0" encoding="UTF-8"?>
<svg version="1.1" xmlns="http://www.w3.org/2000/svg" width="293" height="125">
<path d="M0 0 C96.69 0 193.38 0 293 0 C293 41.25 293 82.5 293 125 C196.31 125 99.62 125 0 125 C0 83.75 0 42.5 0 0 Z " fill="#F4F4F4" transform="translate(0,0)"/>
<path d="M0 0 C4.12443976 3.74949069 7.69950861 8.02599546 11.39453125 12.19140625 C13.74198986 14.72187512 16.16417856 17.09927763 18.6628418 19.47583008 C26.41059547 26.91610483 31.14496423 32.95319643 31.5625 44 C31.00785915 56.5132386 25.8038992 63.38285018 17 72 C15.06515561 73.76754582 13.1000706 75.47842429 11.09375 77.1640625 C6.85102737 80.88436033 2.95167852 84.97544217 -1 89 C-2.32 87.68 -3.64 86.36 -5 85 C5 75 5 75 6.98828125 73.1171875 C12.62555802 67.69633269 16.04242052 63.66963372 16.5625 55.625 C16.439397 49.62578065 14.07109846 46.2286112 10 42 C6.33622257 42.57380172 4.67232775 43.97269658 2.109375 46.59765625 C1.40039062 47.31630859 0.69140625 48.03496094 -0.0390625 48.77539062 C-0.76867188 49.53013672 -1.49828125 50.28488281 -2.25 51.0625 C-2.99507812 51.82111328 -3.74015625 52.57972656 -4.5078125 53.36132812 C-6.34546694 55.23432207 -8.17575724 57.11395611 -10 59 C-10.66 58.67 -11.32 58.34 -12 58 C-12.09287113 52.6849137 -10.70980796 50.25441383 -7.10546875 46.34375 C-5.48178021 44.71344497 -3.84181747 43.09921627 -2.1875 41.5 C-1.36701172 40.6646875 -0.54652344 39.829375 0.29882812 38.96875 C4.88960202 34.44127144 4.88960202 34.44127144 7 33 C12.11543795 33.36593297 14.70134819 37.58687915 17.87109375 41.2109375 C20.68150859 44.89283878 22.49353906 48.63863757 24 53 C26.1924065 44.90770284 25.06298133 38.27751657 21 31 C19.39847404 29.06151932 17.71576724 27.40067558 15.85546875 25.7109375 C13.90810867 23.91526652 12.21783537 22.01507879 10.5 20 C7.17841283 16.14364482 3.64719707 12.54742572 0 9 C-5.73231732 11.45542039 -9.70803878 16.29839248 -14.0625 20.625 C-14.97322266 21.50285156 -15.88394531 22.38070312 -16.82226562 23.28515625 C-22.99417455 29.40703497 -26.51872593 33.73463254 -27.328125 42.58984375 C-27.28945313 44.24693359 -27.28945313 44.24693359 -27.25 45.9375 C-27.23453125 47.06027344 -27.2190625 48.18304688 -27.203125 49.33984375 C-27.29646946 51.92060306 -27.29646946 51.92060306 -26 53 C-25.72542969 51.74316406 -25.45085938 50.48632812 -25.16796875 49.19140625 C-22.85594273 42.2553282 -17.49006231 37.84510579 -12.3125 32.9375 C-11.31306894 31.96822209 -10.31500892 30.99752838 -9.31835938 30.02539062 C-6.89199098 27.66935175 -4.45273695 25.32852355 -2 23 C-0.68 23.66 0.64 24.32 2 25 C1.41873782 28.34807015 0.40357436 29.95788339 -2.01953125 32.3125 C-2.62990234 32.91320313 -3.24027344 33.51390625 -3.86914062 34.1328125 C-4.83110352 35.05707031 -4.83110352 35.05707031 -5.8125 36 C-6.75706055 36.92425781 -6.75706055 36.92425781 -7.72070312 37.8671875 C-10.23677592 40.32781693 -12.76143428 42.77546756 -15.32421875 45.1875 C-18.98041843 49.14199103 -19.3824554 52.5348108 -19.25390625 57.75390625 C-18.65306993 63.06899679 -15.87125895 66.52921611 -12 70 C-8.84795019 68.60652624 -6.73828227 66.97514921 -4.328125 64.5234375 C-3.66425781 63.853125 -3.00039063 63.1828125 -2.31640625 62.4921875 C-1.63449219 61.79351562 -0.95257813 61.09484375 -0.25 60.375 C0.44738281 59.66859375 1.14476562 58.9621875 1.86328125 58.234375 C3.58012488 56.49401297 5.29211832 54.74915019 7 53 C7.99 53.495 7.99 53.495 9 54 C9.34802225 57.62217891 9.41751156 59.41943451 7.25585938 62.42529297 C6.45986328 63.18986816 5.66386719 63.95444336 4.84375 64.7421875 C3.98652344 65.58007812 3.12929688 66.41796875 2.24609375 67.28125 C1.33988281 68.1371875 0.43367188 68.993125 -0.5 69.875 C-1.40621094 70.75414063 -2.31242187 71.63328125 -3.24609375 72.5390625 C-5.48452087 74.70680245 -7.73572089 76.85933075 -10 79 C-19.06138143 74.88468986 -28.35914179 64.76354781 -32.4375 55.8125 C-34.92166093 48.29942792 -35.37198589 40.68828379 -32.4375 33.25 C-27.92413238 24.778834 -20.32696273 18.1404952 -13.60961914 11.42431641 C-12.16718144 9.97965004 -10.73298435 8.52710146 -9.29882812 7.07421875 C-8.38939453 6.16285156 -7.47996094 5.25148438 -6.54296875 4.3125 C-5.71821045 3.48363281 -4.89345215 2.65476562 -4.04370117 1.80078125 C-2 0 -2 0 0 0 Z " fill="#1B3F1E" transform="translate(59,20)"/>
<path d="M0 0 C0.99 0.66 1.98 1.32 3 2 C3.33 1.34 3.66 0.68 4 0 C5.65 0 7.3 0 9 0 C9 6.93 9 13.86 9 21 C6.33333333 21 3.66666667 21 1 21 C-0.9490625 21.12375 -0.9490625 21.12375 -2.9375 21.25 C-6.09510994 21.25580443 -6.79112175 21.15531972 -9.4375 19.1875 C-12.27531443 15.2145598 -12.32894576 11.76971351 -12 7 C-9.29539664 1.20442136 -6.36191231 -0.53015936 0 0 Z " fill="#1A3E1D" transform="translate(194,55)"/>
<path d="M0 0 C1.4540625 0.0309375 1.4540625 0.0309375 2.9375 0.0625 C4.06868904 2.89349717 5.19254568 5.72706009 6.3125 8.5625 C6.62960938 9.35398437 6.94671875 10.14546875 7.2734375 10.9609375 C9.23490815 15.94634206 10.75099262 20.83707354 11.9375 26.0625 C10.2875 26.0625 8.6375 26.0625 6.9375 26.0625 C6.72351563 25.41796875 6.50953125 24.7734375 6.2890625 24.109375 C5.0901477 21.78410885 5.0901477 21.78410885 2.3359375 21.453125 C0.83933594 21.38351563 0.83933594 21.38351563 -0.6875 21.3125 C-1.69039062 21.25578125 -2.69328125 21.1990625 -3.7265625 21.140625 C-4.88285156 21.10195312 -4.88285156 21.10195312 -6.0625 21.0625 C-6.3925 22.7125 -6.7225 24.3625 -7.0625 26.0625 C-8.7125 26.0625 -10.3625 26.0625 -12.0625 26.0625 C-10.97327641 19.96284791 -9.1746961 14.34623884 -7 8.5625 C-6.7304248 7.84384766 -6.46084961 7.12519531 -6.18310547 6.38476562 C-3.77013641 0.07694156 -3.77013641 0.07694156 0 0 Z " fill="#1B3E1E" transform="translate(118.0625,49.9375)"/>
<path d="M0 0 C1.4540625 0.0309375 1.4540625 0.0309375 2.9375 0.0625 C4.06868904 2.89349717 5.19254568 5.72706009 6.3125 8.5625 C6.62960938 9.35398437 6.94671875 10.14546875 7.2734375 10.9609375 C9.23490815 15.94634206 10.75099262 20.83707354 11.9375 26.0625 C10.2875 26.0625 8.6375 26.0625 6.9375 26.0625 C6.72351563 25.41796875 6.50953125 24.7734375 6.2890625 24.109375 C5.0901477 21.78410885 5.0901477 21.78410885 2.3359375 21.453125 C0.83933594 21.38351563 0.83933594 21.38351563 -0.6875 21.3125 C-1.69039062 21.25578125 -2.69328125 21.1990625 -3.7265625 21.140625 C-4.88285156 21.10195312 -4.88285156 21.10195312 -6.0625 21.0625 C-6.3925 22.7125 -6.7225 24.3625 -7.0625 26.0625 C-8.7125 26.0625 -10.3625 26.0625 -12.0625 26.0625 C-11.40196516 20.45712794 -9.53971446 15.49477973 -7.5625 10.25 C-7.08103516 8.94385742 -7.08103516 8.94385742 -6.58984375 7.61132812 C-3.7828973 0.07720199 -3.7828973 0.07720199 0 0 Z " fill="#1B3E1D" transform="translate(228.0625,49.9375)"/>
<path d="M0 0 C4.13802888 0.39788739 5.44596413 1.25312191 8.25 4.3125 C8.86155283 7.25265783 8.72347773 10.07574401 8.5625 13.0625 C8.53994141 13.85527344 8.51738281 14.64804688 8.49414062 15.46484375 C8.43540471 17.4148762 8.34572654 19.36393312 8.25 21.3125 C6.6 21.3125 4.95 21.3125 3.25 21.3125 C3.18941406 20.31347656 3.12882813 19.31445312 3.06640625 18.28515625 C2.94072266 16.34962891 2.94072266 16.34962891 2.8125 14.375 C2.73128906 13.08722656 2.65007812 11.79945312 2.56640625 10.47265625 C2.60080812 7.45226043 2.60080812 7.45226043 1.25 6.3125 C-1.25 6.14583333 -1.25 6.14583333 -3.75 6.3125 C-5.69090826 8.25340826 -5.14919435 11.78543902 -5.3125 14.375 C-5.39628906 15.66535156 -5.48007813 16.95570312 -5.56640625 18.28515625 C-5.62699219 19.28417969 -5.68757812 20.28320312 -5.75 21.3125 C-7.4 21.3125 -9.05 21.3125 -10.75 21.3125 C-10.75 14.7125 -10.75 8.1125 -10.75 1.3125 C-8.41666667 1.3125 -6.08333333 1.3125 -3.75 1.3125 C-2.75 0.3125 -2.75 0.3125 0 0 Z " fill="#193D1C" transform="translate(169.75,54.6875)"/>
<path d="M0 0 C1.2065625 0.0309375 1.2065625 0.0309375 2.4375 0.0625 C2.4375 0.7225 2.4375 1.3825 2.4375 2.0625 C3.4275 1.4025 4.4175 0.7425 5.4375 0.0625 C6.4275 0.0625 7.4175 0.0625 8.4375 0.0625 C8.4375 2.0425 8.4375 4.0225 8.4375 6.0625 C6.7875 6.3925 5.1375 6.7225 3.4375 7.0625 C3.1075 11.6825 2.7775 16.3025 2.4375 21.0625 C0.4575 21.0625 -1.5225 21.0625 -3.5625 21.0625 C-3.59138146 17.75001813 -3.60925799 14.43756833 -3.625 11.125 C-3.63337891 10.17947266 -3.64175781 9.23394531 -3.65039062 8.25976562 C-3.65361328 7.36064453 -3.65683594 6.46152344 -3.66015625 5.53515625 C-3.66539307 4.70250244 -3.67062988 3.86984863 -3.67602539 3.01196289 C-3.50016074 -0.00799247 -3.04049625 0.07415845 0 0 Z " fill="#2D4D30" transform="translate(136.5625,54.9375)"/>
<path d="M0 0 C1.65 0 3.3 0 5 0 C5 8.58 5 17.16 5 26 C3.35 26 1.7 26 0 26 C0 17.42 0 8.84 0 0 Z " fill="#1E4121" transform="translate(244,50)"/>
<path d="M0 0 C1.65 0 3.3 0 5 0 C5 6.93 5 13.86 5 21 C3.02 21 1.04 21 -1 21 C-1.02888146 17.68751813 -1.04675799 14.37506833 -1.0625 11.0625 C-1.07087891 10.11697266 -1.07925781 9.17144531 -1.08789062 8.19726562 C-1.09111328 7.29814453 -1.09433594 6.39902344 -1.09765625 5.47265625 C-1.10289307 4.64000244 -1.10812988 3.80734863 -1.11352539 2.94946289 C-1 1 -1 1 0 0 Z " fill="#365539" transform="translate(149,55)"/>
<path d="M0 0 C2 3 2 3 1.75 6.5625 C1 10 1 10 -1 12 C-4 11.8125 -4 11.8125 -7 11 C-9.15502531 7.76746204 -9.46856135 6.74849077 -9 3 C-6.74087166 -0.63970677 -4.02464148 -0.51378402 0 0 Z " fill="#E8EAE8" transform="translate(196,60)"/>
<path d="M0 0 C0.66 0.33 1.32 0.66 2 1 C2.6328125 3.06640625 2.6328125 3.06640625 3.125 5.5625 C3.29257813 6.38878906 3.46015625 7.21507813 3.6328125 8.06640625 C3.75398437 8.70449219 3.87515625 9.34257813 4 10 C1.69 10 -0.62 10 -3 10 C-2.01 6.7 -1.02 3.4 0 0 Z " fill="#DEE1DE" transform="translate(227,57)"/>
<path d="M0 0 C0.66 0.33 1.32 0.66 2 1 C2.6328125 3.06640625 2.6328125 3.06640625 3.125 5.5625 C3.29257813 6.38878906 3.46015625 7.21507813 3.6328125 8.06640625 C3.75398438 8.70449219 3.87515625 9.34257813 4 10 C1.69 10 -0.62 10 -3 10 C-2.01 6.7 -1.02 3.4 0 0 Z " fill="#DEE2DE" transform="translate(117,57)"/>
<path d="M0 0 C1.65 0.33 3.3 0.66 5 1 C4.67 2.65 4.34 4.3 4 6 C2.35 5.67 0.7 5.34 -1 5 C-0.67 3.35 -0.34 1.7 0 0 Z " fill="#214323" transform="translate(149,47)"/>
</svg>
